<svg width="120" height="115" viewBox="0 0 120 115" fill="none" xmlns="http://www.w3.org/2000/svg">
<rect width="119.621" height="114.078" rx="57.0392" fill="white"/>
<path d="M90.6639 22.9292C80.1177 32.0567 71.1952 40.7454 63.0264 52.0817C59.4239 57.0817 55.4177 62.9667 52.7989 68.5229C51.3039 71.4692 48.6089 76.0729 47.6902 80.4992C42.6652 75.8242 37.2677 70.5179 31.7452 66.3617C27.8089 63.4004 16.4714 69.4379 21.0864 72.9104C29.3577 79.1317 36.2364 86.8804 44.2814 93.3792C47.6464 96.0942 55.1039 90.1979 56.8564 87.7242C62.6089 79.5742 63.3952 69.6117 67.5877 60.7217C73.9889 47.1254 85.3414 35.9567 96.5502 26.2579C103.976 19.3317 96.3064 18.0542 90.6752 22.9292" fill="#37B34A"/>
</svg>
